<svg viewBox="0 0 16 16" xmlns="http://www.w3.org/2000/svg" fill-rule="evenodd" clip-rule="evenodd" stroke-linejoin="round" stroke-miterlimit="1.414">
                                                            <path d="M14.44 3.796H10.7C10.656 2.768 9.463 1.94 8 1.94c-1.464 0-2.657.828-2.7 1.856H1.56a.717.717 0 0 0-.715.716v3.02c0 .395.32.716.716.716h.016v4.913a.9.9 0 0 0 .9.9h11.048a.9.9 0 0 0 .9-.9V8.25h.015a.717.717 0 0 0 .715-.716v-3.02a.717.717 0 0 0-.716-.716zM8 2.42c1.197 0 2.173.612 2.218 1.376H5.782C5.827 3.032 6.802 2.42 8 2.42zm5.944 10.74a.42.42 0 0 1-.42.42H2.476a.42.42 0 0 1-.42-.42V8.248h3.922v.977h4.044v-.977h3.922v4.912zM6.458 8.745v-1.43h3.084v1.43H6.458zm8.217-1.213c0 .13-.106.236-.236.236H10.02v-.933H5.978v.933H1.56a.236.236 0 0 1-.235-.236v-3.02c0-.13.106-.236.236-.236h12.88c.13 0 .235.106.235.236v3.02z" fill-rule="nonzero"/>
                                                        </svg>